# xmcd
# Track frame offsets:
# 150
# 19225
# 32884
# 46615
# 60132
# 75264
# 89440
# 103428
# 115061
# 128230
# 140086
# 155011
# 169346
# 183028
# 196338
#
# Disc length: 2785 seconds
# Revision: 3
# Processed by: cddbd v1.4PL0 Copyright (c) Steve Scherf et al.
# Submitted via: VisiTrax 2.9.5.181 - For more info visit www.synapsa.com
#
DISCID=c10adf0f
DTITLE=Various Artist - Blues Legends 0074
DYEAR=1997
DGENRE=Blues
TTITLE0=Leadbelly - Easy Rider
TTITLE1=Bukka White - Black Train Blues
TTITLE2=Robert Johnson - (I Believe I'll) Dust my  Broom
TTITLE3=Leroy Carr - Mean Mistreater Mama
TTITLE4=Lonnie Johnson - Four Hands Are Better Than Two
TTITLE5=Blind Willie McTell - Georgia Rag
TTITLE6=Blind Boy Fuller - My Brownskin Sugar Plum
TTITLE7=Robert Johnson - Walkin' Blues
TTITLE8=Big Joe Turner - Sun Risin' Blues
TTITLE9=Leadbelly - Rock Island Line
TTITLE10=Koe Turner - Rocks in my Bed
TTITLE11=Leroy Carr - Midnight Hour Blues
TTITLE12=Tampa Red - You Can't Get That Stuff
TTITLE13=Broonzy - Bull Cow Blues
TTITLE14=Champion Jack Dupree - Gamblin Man Blues
EXTD=
EXTT0=
EXTT1=
EXTT2=
EXTT3=
EXTT4=
EXTT5=
EXTT6=
EXTT7=
EXTT8=
EXTT9=
EXTT10=
EXTT11=
EXTT12=
EXTT13=
EXTT14=
PLAYORDER=
